<svg width="39" height="39" viewBox="0 0 39 39" fill="none" xmlns="http://www.w3.org/2000/svg">
<path d="M19.5 0C8.72812 0 0 8.72812 0 19.5C0 30.2719 8.72812 39 19.5 39C30.2719 39 39 30.2719 39 19.5C39 8.72812 30.2719 0 19.5 0ZM12.1031 27.8344C11.85 28.2656 11.4 28.5 10.9313 28.5C10.6969 28.5 10.4625 28.4438 10.2469 28.3125C9.6 27.9375 9.38438 27.1125 9.75938 26.4656L11.0906 24.2531C11.2313 24.0188 11.475 23.8781 11.7469 23.8781H11.9437C12.9094 23.8781 13.5844 24.4594 13.7812 25.0219L12.1031 27.8344ZM23.3719 23.4844L14.6531 23.4938H8.85938C8.09062 23.4938 7.47188 22.8563 7.50938 22.0875C7.5375 21.3563 8.175 20.8031 8.90625 20.8031H13.1063L18.0844 12.3281L16.4719 9.58125C16.1062 8.95312 16.2656 8.12813 16.8844 7.73438C17.5406 7.3125 18.4031 7.52813 18.7875 8.18438L19.65 9.65625H19.6594L20.5219 8.18438C20.9062 7.52813 21.7781 7.3125 22.425 7.73438C23.0438 8.12813 23.2031 8.95312 22.8375 9.58125L21.225 12.3281L19.6594 15L16.2562 20.8031V20.8125H21.2719C21.9 20.8125 22.6875 21.15 23.0062 21.6937L23.0344 21.75C23.3156 22.2281 23.475 22.5563 23.475 23.0344C23.4656 23.2969 23.3719 23.4844 23.3719 23.4844ZM30.1406 23.4938H27.7781V23.5031L29.5031 26.4375C29.8781 27.075 29.7 27.9188 29.0531 28.3125C28.8375 28.4438 28.5938 28.5094 28.35 28.5094C27.8812 28.5094 27.4312 28.2656 27.1781 27.8438L24.6281 23.5031L23.0437 20.8031L21 17.3063C20.4 16.2844 20.3719 15.0094 20.9437 13.9969C21.3469 13.2844 21.6562 13.0969 21.6562 13.0969L26.2031 20.7937H30.1125C30.8438 20.7937 31.4719 21.3563 31.5094 22.0781C31.5375 22.8563 30.9188 23.4938 30.1406 23.4938Z" fill="#D9A4FC"/>
</svg>
