<svg width="302" height="275" viewBox="0 0 302 275" fill="none" xmlns="http://www.w3.org/2000/svg">
<path d="M10.656 96.624L11.268 97.776C10.848 98.208 10.278 98.55 9.558 98.802C8.838 99.054 8.082 99.18 7.29 99.18C5.406 99.18 3.864 98.592 2.664 97.416C1.488 96.216 0.9 94.644 0.9 92.7C0.9 90.828 1.464 89.286 2.592 88.074C3.72 86.838 5.25 86.22 7.182 86.22C8.778 86.22 10.056 86.628 11.016 87.444L10.314 88.596C9.474 87.972 8.436 87.66 7.2 87.66C5.832 87.66 4.71 88.128 3.834 89.064C2.958 89.988 2.52 91.2 2.52 92.7C2.52 94.2 2.97 95.418 3.87 96.354C4.794 97.278 5.982 97.74 7.434 97.74C8.658 97.74 9.732 97.368 10.656 96.624ZM19.0063 96.984L19.4563 98.118C18.6763 98.826 17.6623 99.18 16.4143 99.18C15.0943 99.18 14.0443 98.796 13.2643 98.028C12.4723 97.26 12.0763 96.234 12.0763 94.95C12.0763 93.738 12.4483 92.73 13.1923 91.926C13.9243 91.122 14.9443 90.72 16.2523 90.72C17.3323 90.72 18.2263 91.068 18.9343 91.764C19.6543 92.448 20.0143 93.336 20.0143 94.428C20.0143 94.776 19.9843 95.1 19.9243 95.4H13.6963C13.7563 96.156 14.0383 96.75 14.5423 97.182C15.0583 97.614 15.7183 97.83 16.5223 97.83C17.5783 97.83 18.4063 97.548 19.0063 96.984ZM16.1803 92.07C15.4723 92.07 14.8843 92.268 14.4163 92.664C13.9603 93.06 13.6903 93.582 13.6063 94.23H18.5203C18.4843 93.558 18.2563 93.03 17.8363 92.646C17.4283 92.262 16.8763 92.07 16.1803 92.07ZM23.4079 102.6H21.9679V90.9H23.4079V91.854C23.6959 91.518 24.0919 91.248 24.5959 91.044C25.0999 90.828 25.6219 90.72 26.1619 90.72C27.3139 90.72 28.2199 91.104 28.8799 91.872C29.5639 92.628 29.9059 93.612 29.9059 94.824C29.9059 96.06 29.5159 97.098 28.7359 97.938C27.9679 98.766 26.9539 99.18 25.6939 99.18C24.7219 99.18 23.9599 98.994 23.4079 98.622V102.6ZM25.7479 92.07C24.7879 92.07 24.0079 92.442 23.4079 93.186V97.2C24.0439 97.62 24.7639 97.83 25.5679 97.83C26.4199 97.83 27.0979 97.56 27.6019 97.02C28.1179 96.468 28.3759 95.754 28.3759 94.878C28.3759 94.026 28.1419 93.348 27.6739 92.844C27.2059 92.328 26.5639 92.07 25.7479 92.07ZM31.9698 99V90.9C32.0298 90.9 32.1138 90.9 32.2218 90.9C32.3298 90.888 32.4858 90.882 32.6898 90.882C32.8938 90.87 33.0798 90.864 33.2478 90.864C34.1358 90.84 34.6878 90.828 34.9038 90.828C37.2318 90.828 38.3958 91.524 38.3958 92.916C38.3958 93.396 38.2458 93.81 37.9458 94.158C37.6458 94.494 37.2558 94.698 36.7758 94.77V94.806C38.0358 95.034 38.6658 95.67 38.6658 96.714C38.6658 98.286 37.4238 99.072 34.9398 99.072C34.8198 99.072 34.2918 99.06 33.3558 99.036C33.1758 99.036 32.9778 99.03 32.7618 99.018C32.5458 99.018 32.3778 99.012 32.2578 99C32.1378 99 32.0418 99 31.9698 99ZM35.1378 95.364H33.4098V97.848C34.2738 97.884 34.8258 97.902 35.0658 97.902C36.4458 97.902 37.1358 97.47 37.1358 96.606C37.1358 95.778 36.4698 95.364 35.1378 95.364ZM35.0118 91.998C34.6638 91.998 34.1298 92.016 33.4098 92.052V94.464H35.2278C35.7198 94.464 36.1158 94.35 36.4158 94.122C36.7158 93.894 36.8658 93.588 36.8658 93.204C36.8658 92.4 36.2478 91.998 35.0118 91.998ZM46.9844 92.97L42.3044 99H40.8644V90.9H42.3044V96.93L46.9844 90.9H48.4244V99H46.9844V92.97ZM57.2701 96.786L57.9541 97.83C57.2581 98.73 56.2201 99.18 54.8401 99.18C53.5441 99.18 52.4941 98.796 51.6901 98.028C50.8981 97.26 50.5021 96.234 50.5021 94.95C50.5021 93.762 50.8921 92.76 51.6721 91.944C52.4521 91.128 53.4301 90.72 54.6061 90.72C56.0221 90.72 57.0841 91.074 57.7921 91.782L57.1261 92.916C56.5021 92.352 55.7281 92.07 54.8041 92.07C54.0481 92.07 53.3941 92.346 52.8421 92.898C52.3021 93.438 52.0321 94.122 52.0321 94.95C52.0321 95.826 52.3081 96.522 52.8601 97.038C53.4241 97.566 54.1201 97.83 54.9481 97.83C55.8841 97.83 56.6581 97.482 57.2701 96.786ZM64.1081 100.98H62.7581V97.65H63.7661C64.0661 97.278 64.3301 96.678 64.5581 95.85C64.7861 95.01 64.9361 94.074 65.0081 93.042L65.1341 90.9H70.6601V97.65H72.0101V100.98H70.6601V99H64.1081V100.98ZM66.4841 92.25L66.3941 93.6C66.3221 94.5 66.1781 95.322 65.9621 96.066C65.7461 96.81 65.5241 97.338 65.2961 97.65H69.2201V92.25H66.4841ZM74.2253 97.992C73.4333 97.176 73.0373 96.162 73.0373 94.95C73.0373 93.726 73.4333 92.718 74.2253 91.926C75.0293 91.122 76.0733 90.72 77.3573 90.72C78.6413 90.72 79.6793 91.122 80.4713 91.926C81.2753 92.718 81.6773 93.726 81.6773 94.95C81.6773 96.174 81.2753 97.188 80.4713 97.992C79.6793 98.784 78.6413 99.18 77.3573 99.18C76.0853 99.18 75.0413 98.784 74.2253 97.992ZM75.3593 92.88C74.8313 93.408 74.5673 94.098 74.5673 94.95C74.5673 95.802 74.8253 96.492 75.3413 97.02C75.8693 97.56 76.5413 97.83 77.3573 97.83C78.1733 97.83 78.8393 97.566 79.3553 97.038C79.8833 96.498 80.1473 95.802 80.1473 94.95C80.1473 94.122 79.8833 93.432 79.3553 92.88C78.8393 92.34 78.1733 92.07 77.3573 92.07C76.5413 92.07 75.8753 92.34 75.3593 92.88ZM89.983 96.786L90.667 97.83C89.971 98.73 88.933 99.18 87.553 99.18C86.257 99.18 85.207 98.796 84.403 98.028C83.611 97.26 83.215 96.234 83.215 94.95C83.215 93.762 83.605 92.76 84.385 91.944C85.165 91.128 86.143 90.72 87.319 90.72C88.735 90.72 89.797 91.074 90.505 91.782L89.839 92.916C89.215 92.352 88.441 92.07 87.517 92.07C86.761 92.07 86.107 92.346 85.555 92.898C85.015 93.438 84.745 94.122 84.745 94.95C84.745 95.826 85.021 96.522 85.573 97.038C86.137 97.566 86.833 97.83 87.661 97.83C88.597 97.83 89.371 97.482 89.983 96.786ZM94.3826 92.34H91.4126V90.9H98.7926V92.34H95.8226V99H94.3826V92.34ZM106.301 90.9H107.939L104.699 99C104.111 100.428 103.601 101.376 103.169 101.844C102.713 102.348 102.191 102.6 101.603 102.6C101.075 102.6 100.565 102.432 100.073 102.096L100.541 100.998C100.925 101.178 101.225 101.268 101.441 101.268C101.777 101.268 102.077 101.124 102.341 100.836C102.617 100.548 102.893 100.08 103.169 99.432L103.349 99L99.4613 90.9H101.189L103.565 96.048C103.613 96.132 103.775 96.54 104.051 97.272C104.159 96.876 104.285 96.462 104.429 96.03L106.301 90.9ZM116.709 99H115.269V92.25H110.859V99H109.419V90.9H116.709V99ZM125.706 96.984L126.156 98.118C125.376 98.826 124.362 99.18 123.114 99.18C121.794 99.18 120.744 98.796 119.964 98.028C119.172 97.26 118.776 96.234 118.776 94.95C118.776 93.738 119.148 92.73 119.892 91.926C120.624 91.122 121.644 90.72 122.952 90.72C124.032 90.72 124.926 91.068 125.634 91.764C126.354 92.448 126.714 93.336 126.714 94.428C126.714 94.776 126.684 95.1 126.624 95.4H120.396C120.456 96.156 120.738 96.75 121.242 97.182C121.758 97.614 122.418 97.83 123.222 97.83C124.278 97.83 125.106 97.548 125.706 96.984ZM122.88 92.07C122.172 92.07 121.584 92.268 121.116 92.664C120.66 93.06 120.39 93.582 120.306 94.23H125.22C125.184 93.558 124.956 93.03 124.536 92.646C124.128 92.262 123.576 92.07 122.88 92.07ZM136.047 99H134.607V95.58H130.107V99H128.667V90.9H130.107V94.23H134.607V90.9H136.047V99ZM142.694 99V90.9C142.754 90.9 142.838 90.9 142.946 90.9C143.054 90.888 143.21 90.882 143.414 90.882C143.618 90.87 143.804 90.864 143.972 90.864C144.86 90.84 145.412 90.828 145.628 90.828C147.956 90.828 149.12 91.524 149.12 92.916C149.12 93.396 148.97 93.81 148.67 94.158C148.37 94.494 147.98 94.698 147.5 94.77V94.806C148.76 95.034 149.39 95.67 149.39 96.714C149.39 98.286 148.148 99.072 145.664 99.072C145.544 99.072 145.016 99.06 144.08 99.036C143.9 99.036 143.702 99.03 143.486 99.018C143.27 99.018 143.102 99.012 142.982 99C142.862 99 142.766 99 142.694 99ZM145.862 95.364H144.134V97.848C144.998 97.884 145.55 97.902 145.79 97.902C147.17 97.902 147.86 97.47 147.86 96.606C147.86 95.778 147.194 95.364 145.862 95.364ZM145.736 91.998C145.388 91.998 144.854 92.016 144.134 92.052V94.464H145.952C146.444 94.464 146.84 94.35 147.14 94.122C147.44 93.894 147.59 93.588 147.59 93.204C147.59 92.4 146.972 91.998 145.736 91.998ZM155.866 100.98H154.516V97.65H155.524C155.824 97.278 156.088 96.678 156.316 95.85C156.544 95.01 156.694 94.074 156.766 93.042L156.892 90.9H162.418V97.65H163.768V100.98H162.418V99H155.866V100.98ZM158.242 92.25L158.152 93.6C158.08 94.5 157.936 95.322 157.72 96.066C157.504 96.81 157.282 97.338 157.054 97.65H160.978V92.25H158.242ZM165.335 99V90.9C165.395 90.9 165.479 90.9 165.587 90.9C165.695 90.888 165.851 90.882 166.055 90.882C166.259 90.87 166.445 90.864 166.613 90.864C167.501 90.84 168.053 90.828 168.269 90.828C170.597 90.828 171.761 91.524 171.761 92.916C171.761 93.396 171.611 93.81 171.311 94.158C171.011 94.494 170.621 94.698 170.141 94.77V94.806C171.401 95.034 172.031 95.67 172.031 96.714C172.031 98.286 170.789 99.072 168.305 99.072C168.185 99.072 167.657 99.06 166.721 99.036C166.541 99.036 166.343 99.03 166.127 99.018C165.911 99.018 165.743 99.012 165.623 99C165.503 99 165.407 99 165.335 99ZM168.503 95.364H166.775V97.848C167.639 97.884 168.191 97.902 168.431 97.902C169.811 97.902 170.501 97.47 170.501 96.606C170.501 95.778 169.835 95.364 168.503 95.364ZM168.377 91.998C168.029 91.998 167.495 92.016 166.775 92.052V94.464H168.593C169.085 94.464 169.481 94.35 169.781 94.122C170.081 93.894 170.231 93.588 170.231 93.204C170.231 92.4 169.613 91.998 168.377 91.998ZM179.954 90.9H181.592L178.352 99C177.764 100.428 177.254 101.376 176.822 101.844C176.366 102.348 175.844 102.6 175.256 102.6C174.728 102.6 174.218 102.432 173.726 102.096L174.194 100.998C174.578 101.178 174.878 101.268 175.094 101.268C175.43 101.268 175.73 101.124 175.994 100.836C176.27 100.548 176.546 100.08 176.822 99.432L177.002 99L173.114 90.9H174.842L177.218 96.048C177.266 96.132 177.428 96.54 177.704 97.272C177.812 96.876 177.938 96.462 178.082 96.03L179.954 90.9ZM188.439 90.9H190.113L187.215 94.806L190.293 99H188.529L186.153 95.724L183.741 99H182.067L185.127 94.878L182.247 90.9H184.011L186.207 93.96L188.439 90.9ZM196.079 99V90.9C196.139 90.9 196.223 90.9 196.331 90.9C196.439 90.888 196.595 90.882 196.799 90.882C197.003 90.87 197.189 90.864 197.357 90.864C198.245 90.84 198.797 90.828 199.013 90.828C201.341 90.828 202.505 91.524 202.505 92.916C202.505 93.396 202.355 93.81 202.055 94.158C201.755 94.494 201.365 94.698 200.885 94.77V94.806C202.145 95.034 202.775 95.67 202.775 96.714C202.775 98.286 201.533 99.072 199.049 99.072C198.929 99.072 198.401 99.06 197.465 99.036C197.285 99.036 197.087 99.03 196.871 99.018C196.655 99.018 196.487 99.012 196.367 99C196.247 99 196.151 99 196.079 99ZM199.247 95.364H197.519V97.848C198.383 97.884 198.935 97.902 199.175 97.902C200.555 97.902 201.245 97.47 201.245 96.606C201.245 95.778 200.579 95.364 199.247 95.364ZM199.121 91.998C198.773 91.998 198.239 92.016 197.519 92.052V94.464H199.337C199.829 94.464 200.225 94.35 200.525 94.122C200.825 93.894 200.975 93.588 200.975 93.204C200.975 92.4 200.357 91.998 199.121 91.998ZM211.364 96.984L211.814 98.118C211.034 98.826 210.02 99.18 208.772 99.18C207.452 99.18 206.402 98.796 205.622 98.028C204.83 97.26 204.434 96.234 204.434 94.95C204.434 93.738 204.806 92.73 205.55 91.926C206.282 91.122 207.302 90.72 208.61 90.72C209.69 90.72 210.584 91.068 211.292 91.764C212.012 92.448 212.372 93.336 212.372 94.428C212.372 94.776 212.342 95.1 212.282 95.4H206.054C206.114 96.156 206.396 96.75 206.9 97.182C207.416 97.614 208.076 97.83 208.88 97.83C209.936 97.83 210.764 97.548 211.364 96.984ZM208.538 92.07C207.83 92.07 207.242 92.268 206.774 92.664C206.318 93.06 206.048 93.582 205.964 94.23H210.878C210.842 93.558 210.614 93.03 210.194 92.646C209.786 92.262 209.234 92.07 208.538 92.07ZM215.765 102.6H214.325V90.9H215.765V91.854C216.053 91.518 216.449 91.248 216.953 91.044C217.457 90.828 217.979 90.72 218.519 90.72C219.671 90.72 220.577 91.104 221.237 91.872C221.921 92.628 222.263 93.612 222.263 94.824C222.263 96.06 221.873 97.098 221.093 97.938C220.325 98.766 219.311 99.18 218.051 99.18C217.079 99.18 216.317 98.994 215.765 98.622V102.6ZM218.105 92.07C217.145 92.07 216.365 92.442 215.765 93.186V97.2C216.401 97.62 217.121 97.83 217.925 97.83C218.777 97.83 219.455 97.56 219.959 97.02C220.475 96.468 220.733 95.754 220.733 94.878C220.733 94.026 220.499 93.348 220.031 92.844C219.563 92.328 218.921 92.07 218.105 92.07ZM230.555 96.786L231.239 97.83C230.543 98.73 229.505 99.18 228.125 99.18C226.829 99.18 225.779 98.796 224.975 98.028C224.183 97.26 223.787 96.234 223.787 94.95C223.787 93.762 224.177 92.76 224.957 91.944C225.737 91.128 226.715 90.72 227.891 90.72C229.307 90.72 230.369 91.074 231.077 91.782L230.411 92.916C229.787 92.352 229.013 92.07 228.089 92.07C227.333 92.07 226.679 92.346 226.127 92.898C225.587 93.438 225.317 94.122 225.317 94.95C225.317 95.826 225.593 96.522 226.145 97.038C226.709 97.566 227.405 97.83 228.233 97.83C229.169 97.83 229.943 97.482 230.555 96.786ZM239.236 92.97L234.556 99H233.116V90.9H234.556V96.93L239.236 90.9H240.676V99H239.236V92.97ZM246.84 90.9H249.36V99H247.92V96.3H246.354L244.374 99H242.628L244.968 95.94C244.476 95.832 244.062 95.568 243.726 95.148C243.39 94.716 243.222 94.2 243.222 93.6C243.222 92.772 243.522 92.118 244.122 91.638C244.722 91.146 245.628 90.9 246.84 90.9ZM244.752 93.636C244.752 94.02 244.902 94.338 245.202 94.59C245.502 94.83 245.856 94.95 246.264 94.95H247.92V92.25H246.606C245.994 92.25 245.532 92.376 245.22 92.628C244.908 92.88 244.752 93.216 244.752 93.636ZM257.504 90.9H259.178L256.28 94.806L259.358 99H257.594L255.218 95.724L252.806 99H251.132L254.192 94.878L251.312 90.9H253.076L255.272 93.96L257.504 90.9ZM261.695 91.692C261.695 91.44 261.791 91.218 261.983 91.026C262.187 90.834 262.433 90.738 262.721 90.738C262.973 90.738 263.195 90.834 263.387 91.026C263.579 91.218 263.675 91.44 263.675 91.692C263.675 91.98 263.585 92.226 263.405 92.43C263.225 92.622 262.997 92.718 262.721 92.718C262.433 92.718 262.187 92.622 261.983 92.43C261.791 92.226 261.695 91.98 261.695 91.692ZM261.695 98.028C261.695 97.776 261.791 97.554 261.983 97.362C262.187 97.17 262.433 97.074 262.721 97.074C262.973 97.074 263.195 97.17 263.387 97.362C263.579 97.554 263.675 97.776 263.675 98.028C263.675 98.316 263.585 98.562 263.405 98.766C263.225 98.958 262.997 99.054 262.721 99.054C262.433 99.054 262.187 98.958 261.983 98.766C261.791 98.562 261.695 98.316 261.695 98.028ZM2.736 121H1.296V112.9H2.61L5.724 116.914L8.676 112.9H9.954V121H8.514V115.096L5.706 118.858H5.652L2.736 115.096V121ZM13.2116 119.992C12.4196 119.176 12.0236 118.162 12.0236 116.95C12.0236 115.726 12.4196 114.718 13.2116 113.926C14.0156 113.122 15.0596 112.72 16.3436 112.72C17.6276 112.72 18.6656 113.122 19.4576 113.926C20.2616 114.718 20.6636 115.726 20.6636 116.95C20.6636 118.174 20.2616 119.188 19.4576 119.992C18.6656 120.784 17.6276 121.18 16.3436 121.18C15.0716 121.18 14.0276 120.784 13.2116 119.992ZM14.3456 114.88C13.8176 115.408 13.5536 116.098 13.5536 116.95C13.5536 117.802 13.8116 118.492 14.3276 119.02C14.8556 119.56 15.5276 119.83 16.3436 119.83C17.1596 119.83 17.8256 119.566 18.3416 119.038C18.8696 118.498 19.1336 117.802 19.1336 116.95C19.1336 116.122 18.8696 115.432 18.3416 114.88C17.8256 114.34 17.1596 114.07 16.3436 114.07C15.5276 114.07 14.8616 114.34 14.3456 114.88ZM29.0053 108.22L29.7793 109.354C29.4913 109.75 29.1433 110.02 28.7353 110.164C28.2913 110.32 27.7873 110.44 27.2233 110.524C26.6713 110.608 26.1493 110.758 25.6573 110.974C24.4333 111.538 23.7493 112.84 23.6053 114.88H23.6413C23.9053 114.316 24.3313 113.86 24.9193 113.512C25.5193 113.164 26.1613 112.99 26.8453 112.99C27.9973 112.99 28.9093 113.356 29.5813 114.088C30.2653 114.82 30.6073 115.798 30.6073 117.022C30.6073 118.174 30.2173 119.158 29.4373 119.974C28.6693 120.778 27.6733 121.18 26.4493 121.18C25.1293 121.18 24.0853 120.73 23.3173 119.83C22.5493 118.942 22.1653 117.712 22.1653 116.14C22.1653 112.636 23.1673 110.458 25.1713 109.606C25.6273 109.402 26.1553 109.252 26.7553 109.156C27.2233 109.072 27.5593 109.006 27.7633 108.958C27.9673 108.91 28.1833 108.826 28.4113 108.706C28.6513 108.586 28.8493 108.424 29.0053 108.22ZM23.6953 116.41C23.6953 117.442 23.9473 118.27 24.4513 118.894C24.9553 119.518 25.6093 119.83 26.4133 119.83C27.1933 119.83 27.8293 119.566 28.3213 119.038C28.8253 118.522 29.0773 117.874 29.0773 117.094C29.0773 116.266 28.8433 115.6 28.3753 115.096C27.9193 114.592 27.2893 114.34 26.4853 114.34C25.7533 114.34 25.1413 114.544 24.6493 114.952C24.1333 115.372 23.8153 115.858 23.6953 116.41ZM38.793 114.97L34.113 121H32.673V112.9H34.113V118.93L38.793 112.9H40.233V121H38.793V114.97ZM49.8347 121H48.3947V114.34H45.5507L45.4607 115.708C45.3647 116.824 45.2207 117.754 45.0287 118.498C44.8487 119.23 44.6087 119.782 44.3087 120.154C44.0207 120.514 43.7147 120.766 43.3907 120.91C43.0667 121.042 42.6707 121.108 42.2027 121.108L42.0947 119.704C42.2267 119.716 42.3647 119.698 42.5087 119.65C42.6527 119.59 42.8087 119.47 42.9767 119.29C43.1567 119.11 43.3127 118.87 43.4447 118.57C43.5887 118.27 43.7147 117.85 43.8227 117.31C43.9427 116.758 44.0207 116.128 44.0567 115.42L44.2007 112.9H49.8347V121ZM55.1668 121H52.4308V112.9H53.8708V115.33H55.3468C56.4508 115.33 57.2608 115.582 57.7768 116.086C58.2928 116.578 58.5508 117.256 58.5508 118.12C58.5508 118.936 58.2808 119.62 57.7408 120.172C57.2008 120.724 56.3428 121 55.1668 121ZM55.0768 116.68H53.8708V119.65H55.0588C56.3668 119.65 57.0208 119.158 57.0208 118.174C57.0208 117.178 56.3728 116.68 55.0768 116.68ZM67.8615 121H66.4215V117.58H61.9215V121H60.4815V112.9H61.9215V116.23H66.4215V112.9H67.8615V121ZM71.1139 119.992C70.3219 119.176 69.9259 118.162 69.9259 116.95C69.9259 115.726 70.3219 114.718 71.1139 113.926C71.9179 113.122 72.9619 112.72 74.2459 112.72C75.5299 112.72 76.5679 113.122 77.3599 113.926C78.1639 114.718 78.5659 115.726 78.5659 116.95C78.5659 118.174 78.1639 119.188 77.3599 119.992C76.5679 120.784 75.5299 121.18 74.2459 121.18C72.9739 121.18 71.9299 120.784 71.1139 119.992ZM72.2479 114.88C71.7199 115.408 71.4559 116.098 71.4559 116.95C71.4559 117.802 71.7139 118.492 72.2299 119.02C72.7579 119.56 73.4299 119.83 74.2459 119.83C75.0619 119.83 75.7279 119.566 76.2439 119.038C76.7719 118.498 77.0359 117.802 77.0359 116.95C77.0359 116.122 76.7719 115.432 76.2439 114.88C75.7279 114.34 75.0619 114.07 74.2459 114.07C73.4299 114.07 72.7639 114.34 72.2479 114.88ZM87.0337 118.984L87.4837 120.118C86.7037 120.826 85.6897 121.18 84.4417 121.18C83.1217 121.18 82.0717 120.796 81.2917 120.028C80.4997 119.26 80.1037 118.234 80.1037 116.95C80.1037 115.738 80.4757 114.73 81.2197 113.926C81.9517 113.122 82.9717 112.72 84.2797 112.72C85.3597 112.72 86.2537 113.068 86.9617 113.764C87.6817 114.448 88.0417 115.336 88.0417 116.428C88.0417 116.776 88.0117 117.1 87.9517 117.4H81.7237C81.7837 118.156 82.0657 118.75 82.5697 119.182C83.0857 119.614 83.7457 119.83 84.5497 119.83C85.6057 119.83 86.4337 119.548 87.0337 118.984ZM84.2077 114.07C83.4997 114.07 82.9117 114.268 82.4437 114.664C81.9877 115.06 81.7177 115.582 81.6337 116.23H86.5477C86.5117 115.558 86.2837 115.03 85.8637 114.646C85.4557 114.262 84.9037 114.07 84.2077 114.07ZM101.328 121H99.8882V114.25H95.4782V121H94.0382V112.9H101.328V121ZM105.375 124.6H103.935V112.9H105.375V113.854C105.663 113.518 106.059 113.248 106.563 113.044C107.067 112.828 107.589 112.72 108.129 112.72C109.281 112.72 110.187 113.104 110.847 113.872C111.531 114.628 111.873 115.612 111.873 116.824C111.873 118.06 111.483 119.098 110.703 119.938C109.935 120.766 108.921 121.18 107.661 121.18C106.689 121.18 105.927 120.994 105.375 120.622V124.6ZM107.715 114.07C106.755 114.07 105.975 114.442 105.375 115.186V119.2C106.011 119.62 106.731 119.83 107.535 119.83C108.387 119.83 109.065 119.56 109.569 119.02C110.085 118.468 110.343 117.754 110.343 116.878C110.343 116.026 110.109 115.348 109.641 114.844C109.173 114.328 108.531 114.07 107.715 114.07ZM120.057 114.97L115.377 121H113.937V112.9H115.377V118.93L120.057 112.9H121.497V121H120.057V114.97ZM131.098 121H129.658V114.34H126.814L126.724 115.708C126.628 116.824 126.484 117.754 126.292 118.498C126.112 119.23 125.872 119.782 125.572 120.154C125.284 120.514 124.978 120.766 124.654 120.91C124.33 121.042 123.934 121.108 123.466 121.108L123.358 119.704C123.49 119.716 123.628 119.698 123.772 119.65C123.916 119.59 124.072 119.47 124.24 119.29C124.42 119.11 124.576 118.87 124.708 118.57C124.852 118.27 124.978 117.85 125.086 117.31C125.206 116.758 125.284 116.128 125.32 115.42L125.464 112.9H131.098V121ZM134.342 119.992C133.55 119.176 133.154 118.162 133.154 116.95C133.154 115.726 133.55 114.718 134.342 113.926C135.146 113.122 136.19 112.72 137.474 112.72C138.758 112.72 139.796 113.122 140.588 113.926C141.392 114.718 141.794 115.726 141.794 116.95C141.794 118.174 141.392 119.188 140.588 119.992C139.796 120.784 138.758 121.18 137.474 121.18C136.202 121.18 135.158 120.784 134.342 119.992ZM135.476 114.88C134.948 115.408 134.684 116.098 134.684 116.95C134.684 117.802 134.942 118.492 135.458 119.02C135.986 119.56 136.658 119.83 137.474 119.83C138.29 119.83 138.956 119.566 139.472 119.038C140 118.498 140.264 117.802 140.264 116.95C140.264 116.122 140 115.432 139.472 114.88C138.956 114.34 138.29 114.07 137.474 114.07C136.658 114.07 135.992 114.34 135.476 114.88ZM152.091 112.9H153.873L150.939 116.806L154.089 121H152.307L149.301 116.806L152.091 112.9ZM148.941 121H147.501V112.9H148.941V121ZM142.407 121L145.503 116.806L142.569 112.9H144.369L147.141 116.806L144.171 121H142.407ZM161.6 118.984L162.05 120.118C161.27 120.826 160.256 121.18 159.008 121.18C157.688 121.18 156.638 120.796 155.858 120.028C155.066 119.26 154.67 118.234 154.67 116.95C154.67 115.738 155.042 114.73 155.786 113.926C156.518 113.122 157.538 112.72 158.846 112.72C159.926 112.72 160.82 113.068 161.528 113.764C162.248 114.448 162.608 115.336 162.608 116.428C162.608 116.776 162.578 117.1 162.518 117.4H156.29C156.35 118.156 156.632 118.75 157.136 119.182C157.652 119.614 158.312 119.83 159.116 119.83C160.172 119.83 161 119.548 161.6 118.984ZM158.774 114.07C158.066 114.07 157.478 114.268 157.01 114.664C156.554 115.06 156.284 115.582 156.2 116.23H161.114C161.078 115.558 160.85 115.03 160.43 114.646C160.022 114.262 159.47 114.07 158.774 114.07ZM171.942 121H170.502V117.58H166.002V121H164.562V112.9H166.002V116.23H170.502V112.9H171.942V121ZM180.666 114.97L175.986 121H174.546V112.9H175.986V118.93L180.666 112.9H182.106V121H180.666V114.97ZM191.114 118.984L191.564 120.118C190.784 120.826 189.77 121.18 188.522 121.18C187.202 121.18 186.152 120.796 185.372 120.028C184.58 119.26 184.184 118.234 184.184 116.95C184.184 115.738 184.556 114.73 185.3 113.926C186.032 113.122 187.052 112.72 188.36 112.72C189.44 112.72 190.334 113.068 191.042 113.764C191.762 114.448 192.122 115.336 192.122 116.428C192.122 116.776 192.092 117.1 192.032 117.4H185.804C185.864 118.156 186.146 118.75 186.65 119.182C187.166 119.614 187.826 119.83 188.63 119.83C189.686 119.83 190.514 119.548 191.114 118.984ZM188.288 114.07C187.58 114.07 186.992 114.268 186.524 114.664C186.068 115.06 185.798 115.582 185.714 116.23H190.628C190.592 115.558 190.364 115.03 189.944 114.646C189.536 114.262 188.984 114.07 188.288 114.07ZM208.281 114.97L203.601 121H202.161V112.9H203.601V118.93L208.281 112.9H209.721V121H208.281V114.97ZM222.61 118.786L223.294 119.83C222.598 120.73 221.56 121.18 220.18 121.18C218.884 121.18 217.834 120.796 217.03 120.028C216.238 119.26 215.842 118.234 215.842 116.95C215.842 115.762 216.232 114.76 217.012 113.944C217.792 113.128 218.77 112.72 219.946 112.72C221.362 112.72 222.424 113.074 223.132 113.782L222.466 114.916C221.842 114.352 221.068 114.07 220.144 114.07C219.388 114.07 218.734 114.346 218.182 114.898C217.642 115.438 217.372 116.122 217.372 116.95C217.372 117.826 217.648 118.522 218.2 119.038C218.764 119.566 219.46 119.83 220.288 119.83C221.224 119.83 221.998 119.482 222.61 118.786ZM225.603 114.61L225.225 113.458C226.029 112.966 226.929 112.72 227.925 112.72C229.017 112.72 229.809 112.99 230.301 113.53C230.793 114.07 231.039 114.904 231.039 116.032V121H229.671V119.956C229.035 120.736 228.171 121.126 227.079 121.126C226.335 121.126 225.735 120.904 225.279 120.46C224.823 120.004 224.595 119.392 224.595 118.624C224.595 117.832 224.877 117.208 225.441 116.752C226.005 116.284 226.743 116.05 227.655 116.05C228.507 116.05 229.179 116.224 229.671 116.572C229.671 115.66 229.545 115.006 229.293 114.61C229.041 114.214 228.555 114.016 227.835 114.016C227.103 114.016 226.359 114.214 225.603 114.61ZM227.583 119.83C228.387 119.83 229.083 119.482 229.671 118.786V117.76C229.167 117.4 228.561 117.22 227.853 117.22C227.361 117.22 226.947 117.34 226.611 117.58C226.287 117.808 226.125 118.132 226.125 118.552C226.125 118.948 226.251 119.26 226.503 119.488C226.767 119.716 227.127 119.83 227.583 119.83ZM239.57 114.97L234.89 121H233.45V112.9H234.89V118.93L239.57 112.9H241.01V121H239.57V114.97ZM234.602 108.76H235.952C236.024 109.708 236.486 110.182 237.338 110.182C238.142 110.182 238.58 109.708 238.652 108.76H240.002C240.002 109.492 239.75 110.098 239.246 110.578C238.754 111.046 238.118 111.28 237.338 111.28C236.486 111.28 235.814 111.052 235.322 110.596C234.842 110.128 234.602 109.516 234.602 108.76ZM245.572 114.34H242.602V112.9H249.982V114.34H247.012V121H245.572V114.34ZM250.457 120.028C250.457 119.776 250.553 119.554 250.745 119.362C250.949 119.17 251.195 119.074 251.483 119.074C251.735 119.074 251.957 119.17 252.149 119.362C252.341 119.554 252.437 119.776 252.437 120.028C252.437 120.316 252.347 120.562 252.167 120.766C251.987 120.958 251.759 121.054 251.483 121.054C251.195 121.054 250.949 120.958 250.745 120.766C250.553 120.562 250.457 120.316 250.457 120.028ZM11.88 143H10.35V137.294H3.42V143H1.89V130.4H3.42V135.854H10.35V130.4H11.88V143ZM15.4917 136.61L15.1137 135.458C15.9177 134.966 16.8177 134.72 17.8137 134.72C18.9057 134.72 19.6977 134.99 20.1897 135.53C20.6817 136.07 20.9277 136.904 20.9277 138.032V143H19.5597V141.956C18.9237 142.736 18.0597 143.126 16.9677 143.126C16.2237 143.126 15.6237 142.904 15.1677 142.46C14.7117 142.004 14.4837 141.392 14.4837 140.624C14.4837 139.832 14.7657 139.208 15.3297 138.752C15.8937 138.284 16.6317 138.05 17.5437 138.05C18.3957 138.05 19.0677 138.224 19.5597 138.572C19.5597 137.66 19.4337 137.006 19.1817 136.61C18.9297 136.214 18.4437 136.016 17.7237 136.016C16.9917 136.016 16.2477 136.214 15.4917 136.61ZM17.4717 141.83C18.2757 141.83 18.9717 141.482 19.5597 140.786V139.76C19.0557 139.4 18.4497 139.22 17.7417 139.22C17.2497 139.22 16.8357 139.34 16.4997 139.58C16.1757 139.808 16.0137 140.132 16.0137 140.552C16.0137 140.948 16.1397 141.26 16.3917 141.488C16.6557 141.716 17.0157 141.83 17.4717 141.83ZM27.983 134.9H29.423V143H27.983V139.85C27.359 140.246 26.609 140.444 25.733 140.444C23.813 140.444 22.853 139.412 22.853 137.348V134.9H24.383V137.186C24.383 138.458 24.965 139.094 26.129 139.094C26.885 139.094 27.503 138.926 27.983 138.59V134.9ZM39.4026 143H37.9626V139.58H33.4626V143H32.0226V134.9H33.4626V138.23H37.9626V134.9H39.4026V143ZM48.1269 136.97L43.4469 143H42.0069V134.9H43.4469V140.93L48.1269 134.9H49.5669V143H48.1269V136.97ZM54.1287 136.34H51.1587V134.9H58.5387V136.34H55.5687V143H54.1287V136.34ZM66.2387 140.984L66.6887 142.118C65.9087 142.826 64.8947 143.18 63.6467 143.18C62.3267 143.18 61.2767 142.796 60.4967 142.028C59.7047 141.26 59.3087 140.234 59.3087 138.95C59.3087 137.738 59.6807 136.73 60.4247 135.926C61.1567 135.122 62.1767 134.72 63.4847 134.72C64.5647 134.72 65.4587 135.068 66.1667 135.764C66.8867 136.448 67.2467 137.336 67.2467 138.428C67.2467 138.776 67.2167 139.1 67.1567 139.4H60.9287C60.9887 140.156 61.2707 140.75 61.7747 141.182C62.2907 141.614 62.9507 141.83 63.7547 141.83C64.8107 141.83 65.6387 141.548 66.2387 140.984ZM63.4127 136.07C62.7047 136.07 62.1167 136.268 61.6487 136.664C61.1927 137.06 60.9227 137.582 60.8387 138.23H65.7527C65.7167 137.558 65.4887 137.03 65.0687 136.646C64.6607 136.262 64.1087 136.07 63.4127 136.07ZM73.8913 141.992C73.0993 141.176 72.7033 140.162 72.7033 138.95C72.7033 137.726 73.0993 136.718 73.8913 135.926C74.6953 135.122 75.7393 134.72 77.0233 134.72C78.3073 134.72 79.3453 135.122 80.1373 135.926C80.9413 136.718 81.3433 137.726 81.3433 138.95C81.3433 140.174 80.9413 141.188 80.1373 141.992C79.3453 142.784 78.3073 143.18 77.0233 143.18C75.7513 143.18 74.7073 142.784 73.8913 141.992ZM75.0253 136.88C74.4973 137.408 74.2333 138.098 74.2333 138.95C74.2333 139.802 74.4913 140.492 75.0073 141.02C75.5353 141.56 76.2073 141.83 77.0233 141.83C77.8393 141.83 78.5053 141.566 79.0213 141.038C79.5493 140.498 79.8133 139.802 79.8133 138.95C79.8133 138.122 79.5493 137.432 79.0213 136.88C78.5053 136.34 77.8393 136.07 77.0233 136.07C76.2073 136.07 75.5413 136.34 75.0253 136.88ZM89.685 130.22L90.459 131.354C90.171 131.75 89.823 132.02 89.415 132.164C88.971 132.32 88.467 132.44 87.903 132.524C87.351 132.608 86.829 132.758 86.337 132.974C85.113 133.538 84.429 134.84 84.285 136.88H84.321C84.585 136.316 85.011 135.86 85.599 135.512C86.199 135.164 86.841 134.99 87.525 134.99C88.677 134.99 89.589 135.356 90.261 136.088C90.945 136.82 91.287 137.798 91.287 139.022C91.287 140.174 90.897 141.158 90.117 141.974C89.349 142.778 88.353 143.18 87.129 143.18C85.809 143.18 84.765 142.73 83.997 141.83C83.229 140.942 82.845 139.712 82.845 138.14C82.845 134.636 83.847 132.458 85.851 131.606C86.307 131.402 86.835 131.252 87.435 131.156C87.903 131.072 88.239 131.006 88.443 130.958C88.647 130.91 88.863 130.826 89.091 130.706C89.331 130.586 89.529 130.424 89.685 130.22ZM84.375 138.41C84.375 139.442 84.627 140.27 85.131 140.894C85.635 141.518 86.289 141.83 87.093 141.83C87.873 141.83 88.509 141.566 89.001 141.038C89.505 140.522 89.757 139.874 89.757 139.094C89.757 138.266 89.523 137.6 89.055 137.096C88.599 136.592 87.969 136.34 87.165 136.34C86.433 136.34 85.821 136.544 85.329 136.952C84.813 137.372 84.495 137.858 84.375 138.41ZM94.7926 143H93.3526V134.9H94.6666L97.7806 138.914L100.733 134.9H102.011V143H100.571V137.096L97.7626 140.858H97.7086L94.7926 137.096V143ZM111.01 140.984L111.46 142.118C110.68 142.826 109.666 143.18 108.418 143.18C107.098 143.18 106.048 142.796 105.268 142.028C104.476 141.26 104.08 140.234 104.08 138.95C104.08 137.738 104.452 136.73 105.196 135.926C105.928 135.122 106.948 134.72 108.256 134.72C109.336 134.72 110.23 135.068 110.938 135.764C111.658 136.448 112.018 137.336 112.018 138.428C112.018 138.776 111.988 139.1 111.928 139.4H105.7C105.76 140.156 106.042 140.75 106.546 141.182C107.062 141.614 107.722 141.83 108.526 141.83C109.582 141.83 110.41 141.548 111.01 140.984ZM108.184 136.07C107.476 136.07 106.888 136.268 106.42 136.664C105.964 137.06 105.694 137.582 105.61 138.23H110.524C110.488 137.558 110.26 137.03 109.84 136.646C109.432 136.262 108.88 136.07 108.184 136.07ZM121.352 143H119.912V139.58H115.412V143H113.972V134.9H115.412V138.23H119.912V134.9H121.352V143ZM130.076 136.97L125.396 143H123.956V134.9H125.396V140.93L130.076 134.9H131.516V143H130.076V136.97ZM134.134 143V134.9C134.194 134.9 134.278 134.9 134.386 134.9C134.494 134.888 134.65 134.882 134.854 134.882C135.058 134.87 135.244 134.864 135.412 134.864C136.3 134.84 136.852 134.828 137.068 134.828C139.396 134.828 140.56 135.524 140.56 136.916C140.56 137.396 140.41 137.81 140.11 138.158C139.81 138.494 139.42 138.698 138.94 138.77V138.806C140.2 139.034 140.83 139.67 140.83 140.714C140.83 142.286 139.588 143.072 137.104 143.072C136.984 143.072 136.456 143.06 135.52 143.036C135.34 143.036 135.142 143.03 134.926 143.018C134.71 143.018 134.542 143.012 134.422 143C134.302 143 134.206 143 134.134 143ZM137.302 139.364H135.574V141.848C136.438 141.884 136.99 141.902 137.23 141.902C138.61 141.902 139.3 141.47 139.3 140.606C139.3 139.778 138.634 139.364 137.302 139.364ZM137.176 135.998C136.828 135.998 136.294 136.016 135.574 136.052V138.464H137.392C137.884 138.464 138.28 138.35 138.58 138.122C138.88 137.894 139.03 137.588 139.03 137.204C139.03 136.4 138.412 135.998 137.176 135.998ZM143.46 136.61L143.082 135.458C143.886 134.966 144.786 134.72 145.782 134.72C146.874 134.72 147.666 134.99 148.158 135.53C148.65 136.07 148.896 136.904 148.896 138.032V143H147.528V141.956C146.892 142.736 146.028 143.126 144.936 143.126C144.192 143.126 143.592 142.904 143.136 142.46C142.68 142.004 142.452 141.392 142.452 140.624C142.452 139.832 142.734 139.208 143.298 138.752C143.862 138.284 144.6 138.05 145.512 138.05C146.364 138.05 147.036 138.224 147.528 138.572C147.528 137.66 147.402 137.006 147.15 136.61C146.898 136.214 146.412 136.016 145.692 136.016C144.96 136.016 144.216 136.214 143.46 136.61ZM145.44 141.83C146.244 141.83 146.94 141.482 147.528 140.786V139.76C147.024 139.4 146.418 139.22 145.71 139.22C145.218 139.22 144.804 139.34 144.468 139.58C144.144 139.808 143.982 140.132 143.982 140.552C143.982 140.948 144.108 141.26 144.36 141.488C144.624 141.716 144.984 141.83 145.44 141.83ZM153.252 136.34H150.282V134.9H157.662V136.34H154.692V143H153.252V136.34ZM161.971 143H159.235V134.9H160.675V137.33H162.151C163.255 137.33 164.065 137.582 164.581 138.086C165.097 138.578 165.355 139.256 165.355 140.12C165.355 140.936 165.085 141.62 164.545 142.172C164.005 142.724 163.147 143 161.971 143ZM161.881 138.68H160.675V141.65H161.863C163.171 141.65 163.825 141.158 163.825 140.174C163.825 139.178 163.177 138.68 161.881 138.68ZM173.409 140.786L174.093 141.83C173.397 142.73 172.359 143.18 170.979 143.18C169.683 143.18 168.633 142.796 167.829 142.028C167.037 141.26 166.641 140.234 166.641 138.95C166.641 137.762 167.031 136.76 167.811 135.944C168.591 135.128 169.569 134.72 170.745 134.72C172.161 134.72 173.223 135.074 173.931 135.782L173.265 136.916C172.641 136.352 171.867 136.07 170.943 136.07C170.187 136.07 169.533 136.346 168.981 136.898C168.441 137.438 168.171 138.122 168.171 138.95C168.171 139.826 168.447 140.522 168.999 141.038C169.563 141.566 170.259 141.83 171.087 141.83C172.023 141.83 172.797 141.482 173.409 140.786ZM179.129 134.9H181.649V143H180.209V140.3H178.643L176.663 143H174.917L177.257 139.94C176.765 139.832 176.351 139.568 176.015 139.148C175.679 138.716 175.511 138.2 175.511 137.6C175.511 136.772 175.811 136.118 176.411 135.638C177.011 135.146 177.917 134.9 179.129 134.9ZM177.041 137.636C177.041 138.02 177.191 138.338 177.491 138.59C177.791 138.83 178.145 138.95 178.553 138.95H180.209V136.25H178.895C178.283 136.25 177.821 136.376 177.509 136.628C177.197 136.88 177.041 137.216 177.041 137.636ZM7.524 162.786L8.208 163.83C7.512 164.73 6.474 165.18 5.094 165.18C3.798 165.18 2.748 164.796 1.944 164.028C1.152 163.26 0.756 162.234 0.756 160.95C0.756 159.762 1.146 158.76 1.926 157.944C2.706 157.128 3.684 156.72 4.86 156.72C6.276 156.72 7.338 157.074 8.046 157.782L7.38 158.916C6.756 158.352 5.982 158.07 5.058 158.07C4.302 158.07 3.648 158.346 3.096 158.898C2.556 159.438 2.286 160.122 2.286 160.95C2.286 161.826 2.562 162.522 3.114 163.038C3.678 163.566 4.374 163.83 5.202 163.83C6.138 163.83 6.912 163.482 7.524 162.786ZM14.362 166.98H13.012V163.65H14.02C14.32 163.278 14.584 162.678 14.812 161.85C15.04 161.01 15.19 160.074 15.262 159.042L15.388 156.9H20.914V163.65H22.264V166.98H20.914V165H14.362V166.98ZM16.738 158.25L16.648 159.6C16.576 160.5 16.432 161.322 16.216 162.066C16 162.81 15.778 163.338 15.55 163.65H19.474V158.25H16.738ZM25.2712 168.6H23.8312V156.9H25.2712V157.854C25.5592 157.518 25.9552 157.248 26.4592 157.044C26.9632 156.828 27.4852 156.72 28.0252 156.72C29.1772 156.72 30.0832 157.104 30.7432 157.872C31.4272 158.628 31.7692 159.612 31.7692 160.824C31.7692 162.06 31.3792 163.098 30.5992 163.938C29.8312 164.766 28.8172 165.18 27.5572 165.18C26.5852 165.18 25.8232 164.994 25.2712 164.622V168.6ZM27.6112 158.07C26.6512 158.07 25.8712 158.442 25.2712 159.186V163.2C25.9072 163.62 26.6272 163.83 27.4312 163.83C28.2832 163.83 28.9612 163.56 29.4652 163.02C29.9812 162.468 30.2392 161.754 30.2392 160.878C30.2392 160.026 30.0052 159.348 29.5372 158.844C29.0692 158.328 28.4272 158.07 27.6112 158.07ZM39.2407 156.9H40.8787L37.6387 165C37.0507 166.428 36.5407 167.376 36.1087 167.844C35.6527 168.348 35.1307 168.6 34.5427 168.6C34.0147 168.6 33.5047 168.432 33.0127 168.096L33.4807 166.998C33.8647 167.178 34.1647 167.268 34.3807 167.268C34.7167 167.268 35.0167 167.124 35.2807 166.836C35.5567 166.548 35.8327 166.08 36.1087 165.432L36.2887 165L32.4007 156.9H34.1287L36.5047 162.048C36.5527 162.132 36.7147 162.54 36.9907 163.272C37.0987 162.876 37.2247 162.462 37.3687 162.03L39.2407 156.9ZM43.7985 165H42.3585V156.9H47.4885V158.25H43.7985V165ZM55 158.97L50.32 165H48.88V156.9H50.32V162.93L55 156.9H56.44V165H55V158.97ZM60.4977 165H59.0577V156.9H60.3717L63.4857 160.914L66.4377 156.9H67.7157V165H66.2757V159.096L63.4677 162.858H63.4137L60.4977 159.096V165ZM76.4453 158.97L71.7653 165H70.3253V156.9H71.7653V162.93L76.4453 156.9H77.8853V165H76.4453V158.97ZM84.546 165V156.9C84.606 156.9 84.69 156.9 84.798 156.9C84.906 156.888 85.062 156.882 85.266 156.882C85.47 156.87 85.656 156.864 85.824 156.864C86.712 156.84 87.264 156.828 87.48 156.828C89.808 156.828 90.972 157.524 90.972 158.916C90.972 159.396 90.822 159.81 90.522 160.158C90.222 160.494 89.832 160.698 89.352 160.77V160.806C90.612 161.034 91.242 161.67 91.242 162.714C91.242 164.286 90 165.072 87.516 165.072C87.396 165.072 86.868 165.06 85.932 165.036C85.752 165.036 85.554 165.03 85.338 165.018C85.122 165.018 84.954 165.012 84.834 165C84.714 165 84.618 165 84.546 165ZM87.714 161.364H85.986V163.848C86.85 163.884 87.402 163.902 87.642 163.902C89.022 163.902 89.712 163.47 89.712 162.606C89.712 161.778 89.046 161.364 87.714 161.364ZM87.588 157.998C87.24 157.998 86.706 158.016 85.986 158.052V160.464H87.804C88.296 160.464 88.692 160.35 88.992 160.122C89.292 159.894 89.442 159.588 89.442 159.204C89.442 158.4 88.824 157.998 87.588 157.998ZM104.774 165H103.334V158.25H98.9235V165H97.4835V156.9H104.774V165ZM107.812 158.61L107.434 157.458C108.238 156.966 109.138 156.72 110.134 156.72C111.226 156.72 112.018 156.99 112.51 157.53C113.002 158.07 113.248 158.904 113.248 160.032V165H111.88V163.956C111.244 164.736 110.38 165.126 109.288 165.126C108.544 165.126 107.944 164.904 107.488 164.46C107.032 164.004 106.804 163.392 106.804 162.624C106.804 161.832 107.086 161.208 107.65 160.752C108.214 160.284 108.952 160.05 109.864 160.05C110.716 160.05 111.388 160.224 111.88 160.572C111.88 159.66 111.754 159.006 111.502 158.61C111.25 158.214 110.764 158.016 110.044 158.016C109.312 158.016 108.568 158.214 107.812 158.61ZM109.792 163.83C110.596 163.83 111.292 163.482 111.88 162.786V161.76C111.376 161.4 110.77 161.22 110.062 161.22C109.57 161.22 109.156 161.34 108.82 161.58C108.496 161.808 108.334 162.132 108.334 162.552C108.334 162.948 108.46 163.26 108.712 163.488C108.976 163.716 109.336 163.83 109.792 163.83ZM117.099 168.6H115.659V156.9H117.099V157.854C117.387 157.518 117.783 157.248 118.287 157.044C118.791 156.828 119.313 156.72 119.853 156.72C121.005 156.72 121.911 157.104 122.571 157.872C123.255 158.628 123.597 159.612 123.597 160.824C123.597 162.06 123.207 163.098 122.427 163.938C121.659 164.766 120.645 165.18 119.385 165.18C118.413 165.18 117.651 164.994 117.099 164.622V168.6ZM119.439 158.07C118.479 158.07 117.699 158.442 117.099 159.186V163.2C117.735 163.62 118.455 163.83 119.259 163.83C120.111 163.83 120.789 163.56 121.293 163.02C121.809 162.468 122.067 161.754 122.067 160.878C122.067 160.026 121.833 159.348 121.365 158.844C120.897 158.328 120.255 158.07 119.439 158.07ZM131.069 156.9H132.707L129.467 165C128.879 166.428 128.369 167.376 127.937 167.844C127.481 168.348 126.959 168.6 126.371 168.6C125.843 168.6 125.333 168.432 124.841 168.096L125.309 166.998C125.693 167.178 125.993 167.268 126.209 167.268C126.545 167.268 126.845 167.124 127.109 166.836C127.385 166.548 127.661 166.08 127.937 165.432L128.117 165L124.229 156.9H125.957L128.333 162.048C128.381 162.132 128.543 162.54 128.819 163.272C128.927 162.876 129.053 162.462 129.197 162.03L131.069 156.9ZM143.432 156.9H145.322L141.776 160.77L145.664 165H143.666L140.012 160.86L143.432 156.9ZM139.67 165H138.23V156.9H139.67V165ZM154.126 165H152.686V158.34H149.842L149.752 159.708C149.656 160.824 149.512 161.754 149.32 162.498C149.14 163.23 148.9 163.782 148.6 164.154C148.312 164.514 148.006 164.766 147.682 164.91C147.358 165.042 146.962 165.108 146.494 165.108L146.386 163.704C146.518 163.716 146.656 163.698 146.8 163.65C146.944 163.59 147.1 163.47 147.268 163.29C147.448 163.11 147.604 162.87 147.736 162.57C147.88 162.27 148.006 161.85 148.114 161.31C148.234 160.758 148.312 160.128 148.348 159.42L148.492 156.9H154.126V165ZM162.842 158.97L158.162 165H156.722V156.9H158.162V162.93L162.842 156.9H164.282V165H162.842V158.97ZM172.102 156.9H173.992L170.446 160.77L174.334 165H172.336L168.682 160.86L172.102 156.9ZM168.34 165H166.9V156.9H168.34V165ZM176.073 163.992C175.281 163.176 174.885 162.162 174.885 160.95C174.885 159.726 175.281 158.718 176.073 157.926C176.877 157.122 177.921 156.72 179.205 156.72C180.489 156.72 181.527 157.122 182.319 157.926C183.123 158.718 183.525 159.726 183.525 160.95C183.525 162.174 183.123 163.188 182.319 163.992C181.527 164.784 180.489 165.18 179.205 165.18C177.933 165.18 176.889 164.784 176.073 163.992ZM177.207 158.88C176.679 159.408 176.415 160.098 176.415 160.95C176.415 161.802 176.673 162.492 177.189 163.02C177.717 163.56 178.389 163.83 179.205 163.83C180.021 163.83 180.687 163.566 181.203 163.038C181.731 162.498 181.995 161.802 181.995 160.95C181.995 160.122 181.731 159.432 181.203 158.88C180.687 158.34 180.021 158.07 179.205 158.07C178.389 158.07 177.723 158.34 177.207 158.88ZM185.603 165V156.9C185.663 156.9 185.747 156.9 185.855 156.9C185.963 156.888 186.119 156.882 186.323 156.882C186.527 156.87 186.713 156.864 186.881 156.864C187.769 156.84 188.321 156.828 188.537 156.828C190.865 156.828 192.029 157.524 192.029 158.916C192.029 159.396 191.879 159.81 191.579 160.158C191.279 160.494 190.889 160.698 190.409 160.77V160.806C191.669 161.034 192.299 161.67 192.299 162.714C192.299 164.286 191.057 165.072 188.573 165.072C188.453 165.072 187.925 165.06 186.989 165.036C186.809 165.036 186.611 165.03 186.395 165.018C186.179 165.018 186.011 165.012 185.891 165C185.771 165 185.675 165 185.603 165ZM188.771 161.364H187.043V163.848C187.907 163.884 188.459 163.902 188.699 163.902C190.079 163.902 190.769 163.47 190.769 162.606C190.769 161.778 190.103 161.364 188.771 161.364ZM188.645 157.998C188.297 157.998 187.763 158.016 187.043 158.052V160.464H188.861C189.353 160.464 189.749 160.35 190.049 160.122C190.349 159.894 190.499 159.588 190.499 159.204C190.499 158.4 189.881 157.998 188.645 157.998ZM194.101 164.028C194.101 163.776 194.197 163.554 194.389 163.362C194.593 163.17 194.839 163.074 195.127 163.074C195.379 163.074 195.601 163.17 195.793 163.362C195.985 163.554 196.081 163.776 196.081 164.028C196.081 164.316 195.991 164.562 195.811 164.766C195.631 164.958 195.403 165.054 195.127 165.054C194.839 165.054 194.593 164.958 194.389 164.766C194.197 164.562 194.101 164.316 194.101 164.028Z" fill="#4A4343"/>
<path d="M11.79 219H10.26V207.84H3.42V219H1.89V206.4H11.79V219ZM21.3618 216.984L21.8118 218.118C21.0318 218.826 20.0178 219.18 18.7698 219.18C17.4498 219.18 16.3998 218.796 15.6198 218.028C14.8278 217.26 14.4318 216.234 14.4318 214.95C14.4318 213.738 14.8038 212.73 15.5478 211.926C16.2798 211.122 17.2998 210.72 18.6078 210.72C19.6878 210.72 20.5818 211.068 21.2898 211.764C22.0098 212.448 22.3698 213.336 22.3698 214.428C22.3698 214.776 22.3398 215.1 22.2798 215.4H16.0518C16.1118 216.156 16.3938 216.75 16.8978 217.182C17.4138 217.614 18.0738 217.83 18.8778 217.83C19.9338 217.83 20.7618 217.548 21.3618 216.984ZM18.5358 212.07C17.8278 212.07 17.2398 212.268 16.7718 212.664C16.3158 213.06 16.0458 213.582 15.9618 214.23H20.8758C20.8398 213.558 20.6118 213.03 20.1918 212.646C19.7838 212.262 19.2318 212.07 18.5358 212.07ZM25.7633 222.6H24.3233V210.9H25.7633V211.854C26.0513 211.518 26.4473 211.248 26.9513 211.044C27.4553 210.828 27.9773 210.72 28.5173 210.72C29.6693 210.72 30.5753 211.104 31.2353 211.872C31.9193 212.628 32.2613 213.612 32.2613 214.824C32.2613 216.06 31.8713 217.098 31.0913 217.938C30.3233 218.766 29.3093 219.18 28.0493 219.18C27.0773 219.18 26.3153 218.994 25.7633 218.622V222.6ZM28.1033 212.07C27.1433 212.07 26.3633 212.442 25.7633 213.186V217.2C26.3993 217.62 27.1193 217.83 27.9233 217.83C28.7753 217.83 29.4533 217.56 29.9573 217.02C30.4733 216.468 30.7313 215.754 30.7313 214.878C30.7313 214.026 30.4973 213.348 30.0293 212.844C29.5613 212.328 28.9193 212.07 28.1033 212.07ZM40.7153 216.984L41.1653 218.118C40.3853 218.826 39.3713 219.18 38.1233 219.18C36.8033 219.18 35.7533 218.796 34.9733 218.028C34.1813 217.26 33.7853 216.234 33.7853 214.95C33.7853 213.738 34.1573 212.73 34.9013 211.926C35.6333 211.122 36.6533 210.72 37.9613 210.72C39.0413 210.72 39.9353 211.068 40.6433 211.764C41.3633 212.448 41.7233 213.336 41.7233 214.428C41.7233 214.776 41.6933 215.1 41.6333 215.4H35.4053C35.4653 216.156 35.7473 216.75 36.2513 217.182C36.7673 217.614 37.4273 217.83 38.2313 217.83C39.2873 217.83 40.1153 217.548 40.7153 216.984ZM37.8893 212.07C37.1813 212.07 36.5933 212.268 36.1253 212.664C35.6693 213.06 35.3993 213.582 35.3153 214.23H40.2293C40.1933 213.558 39.9653 213.03 39.5453 212.646C39.1373 212.262 38.5853 212.07 37.8893 212.07ZM49.7969 212.97L45.1169 219H43.6769V210.9H45.1169V216.93L49.7969 210.9H51.2369V219H49.7969V212.97ZM44.8289 206.76H46.1789C46.2509 207.708 46.7129 208.182 47.5649 208.182C48.3689 208.182 48.8069 207.708 48.8789 206.76H50.2289C50.2289 207.492 49.9769 208.098 49.4729 208.578C48.9809 209.046 48.3449 209.28 47.5649 209.28C46.7129 209.28 46.0409 209.052 45.5489 208.596C45.0689 208.128 44.8289 207.516 44.8289 206.76ZM55.7986 212.34H52.8286V210.9H60.2086V212.34H57.2386V219H55.7986V212.34ZM67.9023 212.97L63.2223 219H61.7823V210.9H63.2223V216.93L67.9023 210.9H69.3423V219H67.9023V212.97ZM83.383 219H81.943V215.58H77.443V219H76.003V210.9H77.443V214.23H81.943V210.9H83.383V219ZM86.4194 212.61L86.0414 211.458C86.8454 210.966 87.7454 210.72 88.7414 210.72C89.8334 210.72 90.6254 210.99 91.1174 211.53C91.6094 212.07 91.8554 212.904 91.8554 214.032V219H90.4874V217.956C89.8514 218.736 88.9874 219.126 87.8954 219.126C87.1514 219.126 86.5514 218.904 86.0954 218.46C85.6394 218.004 85.4114 217.392 85.4114 216.624C85.4114 215.832 85.6934 215.208 86.2574 214.752C86.8214 214.284 87.5594 214.05 88.4714 214.05C89.3234 214.05 89.9954 214.224 90.4874 214.572C90.4874 213.66 90.3614 213.006 90.1094 212.61C89.8574 212.214 89.3714 212.016 88.6514 212.016C87.9194 212.016 87.1754 212.214 86.4194 212.61ZM88.3994 217.83C89.2034 217.83 89.8994 217.482 90.4874 216.786V215.76C89.9834 215.4 89.3774 215.22 88.6694 215.22C88.1774 215.22 87.7634 215.34 87.4274 215.58C87.1034 215.808 86.9414 216.132 86.9414 216.552C86.9414 216.948 87.0674 217.26 87.3194 217.488C87.5834 217.716 87.9434 217.83 88.3994 217.83ZM104.538 216.786L105.222 217.83C104.526 218.73 103.488 219.18 102.108 219.18C100.812 219.18 99.7617 218.796 98.9577 218.028C98.1657 217.26 97.7697 216.234 97.7697 214.95C97.7697 213.762 98.1597 212.76 98.9397 211.944C99.7197 211.128 100.698 210.72 101.874 210.72C103.29 210.72 104.352 211.074 105.06 211.782L104.394 212.916C103.77 212.352 102.996 212.07 102.072 212.07C101.316 212.07 100.662 212.346 100.11 212.898C99.5697 213.438 99.2997 214.122 99.2997 214.95C99.2997 215.826 99.5757 216.522 100.128 217.038C100.692 217.566 101.388 217.83 102.216 217.83C103.152 217.83 103.926 217.482 104.538 216.786ZM107.531 212.61L107.153 211.458C107.957 210.966 108.857 210.72 109.853 210.72C110.945 210.72 111.737 210.99 112.229 211.53C112.721 212.07 112.967 212.904 112.967 214.032V219H111.599V217.956C110.963 218.736 110.099 219.126 109.007 219.126C108.263 219.126 107.663 218.904 107.207 218.46C106.751 218.004 106.523 217.392 106.523 216.624C106.523 215.832 106.805 215.208 107.369 214.752C107.933 214.284 108.671 214.05 109.583 214.05C110.435 214.05 111.107 214.224 111.599 214.572C111.599 213.66 111.473 213.006 111.221 212.61C110.969 212.214 110.483 212.016 109.763 212.016C109.031 212.016 108.287 212.214 107.531 212.61ZM109.511 217.83C110.315 217.83 111.011 217.482 111.599 216.786V215.76C111.095 215.4 110.489 215.22 109.781 215.22C109.289 215.22 108.875 215.34 108.539 215.58C108.215 215.808 108.053 216.132 108.053 216.552C108.053 216.948 108.179 217.26 108.431 217.488C108.695 217.716 109.055 217.83 109.511 217.83ZM121.498 212.97L116.818 219H115.378V210.9H116.818V216.93L121.498 210.9H122.938V219H121.498V212.97ZM116.53 206.76H117.88C117.952 207.708 118.414 208.182 119.266 208.182C120.07 208.182 120.508 207.708 120.58 206.76H121.93C121.93 207.492 121.678 208.098 121.174 208.578C120.682 209.046 120.046 209.28 119.266 209.28C118.414 209.28 117.742 209.052 117.25 208.596C116.77 208.128 116.53 207.516 116.53 206.76ZM127.5 212.34H124.53V210.9H131.91V212.34H128.94V219H127.5V212.34Z" fill="#D9A4FC"/>
<path d="M0 222.6H132.18V223.5H0V222.6Z" fill="#D9A4FC"/>
<path d="M20.43 26H15.27V17.96H6.96V26H1.8V5.99H6.96V13.46H15.27V5.99H20.43V26ZM37.0863 26H32.4663V24.56C32.0063 25.1 31.3663 25.54 30.5463 25.88C29.7463 26.2 28.8863 26.36 27.9663 26.36C26.7063 26.36 25.5563 25.95 24.5163 25.13C23.4963 24.29 22.9863 23.11 22.9863 21.59C22.9863 19.99 23.4863 18.82 24.4863 18.08C25.4863 17.32 26.6463 16.94 27.9663 16.94C30.0663 16.94 31.5663 17.5 32.4663 18.62V16.88C32.4663 16.24 32.2063 15.73 31.6863 15.35C31.1663 14.97 30.4463 14.78 29.5263 14.78C27.9863 14.78 26.6163 15.29 25.4163 16.31L23.7663 13.4C25.5263 11.9 27.7163 11.15 30.3363 11.15C31.2563 11.15 32.0963 11.25 32.8563 11.45C33.6363 11.63 34.3463 11.93 34.9863 12.35C35.6463 12.77 36.1563 13.37 36.5163 14.15C36.8963 14.93 37.0863 15.86 37.0863 16.94V26ZM29.8863 23.33C31.1263 23.33 31.9863 22.98 32.4663 22.28V20.99C31.9663 20.31 31.1063 19.97 29.8863 19.97C29.2263 19.97 28.6763 20.12 28.2363 20.42C27.7963 20.7 27.5763 21.11 27.5763 21.65C27.5763 22.19 27.7963 22.61 28.2363 22.91C28.6763 23.19 29.2263 23.33 29.8863 23.33ZM62.9955 26H57.2955L54.1155 20.87L52.7355 22.52V26H48.1155V11.51H52.7355V17.3L57.1455 11.51H62.7255L57.3855 18.11L62.9955 26ZM71.1881 26.36C68.8081 26.36 66.8981 25.62 65.4581 24.14C64.0181 22.66 63.2981 20.86 63.2981 18.74C63.2981 16.62 64.0181 14.83 65.4581 13.37C66.8981 11.89 68.8081 11.15 71.1881 11.15C73.5881 11.15 75.5081 11.89 76.9481 13.37C78.3881 14.83 79.1081 16.62 79.1081 18.74C79.1081 20.86 78.3881 22.66 76.9481 24.14C75.5081 25.62 73.5881 26.36 71.1881 26.36ZM68.8781 21.29C69.4381 21.95 70.2081 22.28 71.1881 22.28C72.1681 22.28 72.9381 21.95 73.4981 21.29C74.0781 20.61 74.3681 19.76 74.3681 18.74C74.3681 17.74 74.0781 16.91 73.4981 16.25C72.9381 15.57 72.1681 15.23 71.1881 15.23C70.2081 15.23 69.4381 15.57 68.8781 16.25C68.3381 16.91 68.0681 17.74 68.0681 18.74C68.0681 19.76 68.3381 20.61 68.8781 21.29ZM86.1633 26H81.5433V11.51H86.1633V16.49H91.3533V11.51H95.9733V26H91.3533V20.51H86.1633V26ZM98.9665 11.51H103.586V15.5C103.586 16.36 103.796 16.97 104.216 17.33C104.636 17.69 105.276 17.87 106.136 17.87C107.196 17.87 108.076 17.67 108.776 17.27V11.51H113.366V26H108.776V20.93C107.636 21.61 106.186 21.95 104.426 21.95C100.786 21.95 98.9665 20.3 98.9665 17V11.51ZM121.168 26H116.758V11.51H121.378V19.1L126.538 11.51H131.188V26H126.568V18.02L121.168 26ZM149.421 26H143.721L140.541 20.87L139.161 22.52V26H134.541V11.51H139.161V17.3L143.571 11.51H149.151L143.811 18.11L149.421 26ZM164.088 26H159.468V24.56C159.008 25.1 158.368 25.54 157.548 25.88C156.748 26.2 155.888 26.36 154.968 26.36C153.708 26.36 152.558 25.95 151.518 25.13C150.498 24.29 149.988 23.11 149.988 21.59C149.988 19.99 150.488 18.82 151.488 18.08C152.488 17.32 153.648 16.94 154.968 16.94C157.068 16.94 158.568 17.5 159.468 18.62V16.88C159.468 16.24 159.208 15.73 158.688 15.35C158.168 14.97 157.448 14.78 156.528 14.78C154.988 14.78 153.618 15.29 152.418 16.31L150.768 13.4C152.528 11.9 154.718 11.15 157.338 11.15C158.258 11.15 159.098 11.25 159.858 11.45C160.638 11.63 161.348 11.93 161.988 12.35C162.648 12.77 163.158 13.37 163.518 14.15C163.898 14.93 164.088 15.86 164.088 16.94V26ZM156.888 23.33C158.128 23.33 158.988 22.98 159.468 22.28V20.99C158.968 20.31 158.108 19.97 156.888 19.97C156.228 19.97 155.678 20.12 155.238 20.42C154.798 20.7 154.578 21.11 154.578 21.65C154.578 22.19 154.798 22.61 155.238 22.91C155.678 23.19 156.228 23.33 156.888 23.33ZM181.302 26H176.232L173.442 21.62L170.622 26H165.582L170.532 18.56L165.882 11.51H170.952L173.442 15.44L175.902 11.51H180.972L176.352 18.56L181.302 26ZM16.11 59H11.49V48.53H6.3V59H1.68V44.51H16.11V59ZM32.6332 59H28.0132V57.56C27.5532 58.1 26.9132 58.54 26.0932 58.88C25.2932 59.2 24.4332 59.36 23.5132 59.36C22.2532 59.36 21.1032 58.95 20.0632 58.13C19.0432 57.29 18.5332 56.11 18.5332 54.59C18.5332 52.99 19.0332 51.82 20.0332 51.08C21.0332 50.32 22.1932 49.94 23.5132 49.94C25.6132 49.94 27.1132 50.5 28.0132 51.62V49.88C28.0132 49.24 27.7532 48.73 27.2332 48.35C26.7132 47.97 25.9932 47.78 25.0732 47.78C23.5332 47.78 22.1632 48.29 20.9632 49.31L19.3132 46.4C21.0732 44.9 23.2632 44.15 25.8832 44.15C26.8032 44.15 27.6432 44.25 28.4032 44.45C29.1832 44.63 29.8932 44.93 30.5332 45.35C31.1932 45.77 31.7032 46.37 32.0632 47.15C32.4432 47.93 32.6332 48.86 32.6332 49.94V59ZM25.4332 56.33C26.6732 56.33 27.5332 55.98 28.0132 55.28V53.99C27.5132 53.31 26.6532 52.97 25.4332 52.97C24.7732 52.97 24.2232 53.12 23.7832 53.42C23.3432 53.7 23.1232 54.11 23.1232 54.65C23.1232 55.19 23.3432 55.61 23.7832 55.91C24.2232 56.19 24.7732 56.33 25.4332 56.33ZM34.8466 59.36V55.58C35.4066 55.58 35.8666 55.28 36.2266 54.68C36.5866 54.06 36.8666 52.99 37.0666 51.47L38.0266 44.51H50.4166V59H45.7966V48.53H42.0166L41.5666 52.07C41.2466 54.53 40.5566 56.36 39.4966 57.56C38.4566 58.76 36.9066 59.36 34.8466 59.36ZM53.7698 44.51H58.3898V49.16H63.1598C64.8398 49.16 66.1398 49.63 67.0598 50.57C67.9798 51.51 68.4398 52.68 68.4398 54.08C68.4398 55.46 67.9598 56.63 66.9998 57.59C66.0598 58.53 64.7798 59 63.1598 59H53.7698V44.51ZM62.3498 52.88H58.3898V55.28H62.3498C62.7698 55.28 63.1098 55.17 63.3698 54.95C63.6298 54.73 63.7598 54.44 63.7598 54.08C63.7598 53.72 63.6298 53.43 63.3698 53.21C63.1098 52.99 62.7698 52.88 62.3498 52.88ZM82.2499 62.69V59H70.8499V44.51H75.4699V54.98H80.6599V44.51H85.2799V54.98H86.8699V62.69H82.2499ZM95.974 59.36C93.694 59.36 91.804 58.67 90.304 57.29C88.804 55.89 88.054 54.04 88.054 51.74C88.054 49.6 88.774 47.8 90.214 46.34C91.674 44.88 93.524 44.15 95.764 44.15C97.944 44.15 99.724 44.89 101.104 46.37C102.484 47.83 103.174 49.78 103.174 52.22V53.21H92.854C92.994 53.93 93.384 54.54 94.024 55.04C94.664 55.54 95.484 55.79 96.484 55.79C97.044 55.79 97.684 55.68 98.404 55.46C99.144 55.22 99.704 54.92 100.084 54.56L102.034 57.44C101.334 58.06 100.434 58.54 99.334 58.88C98.254 59.2 97.134 59.36 95.974 59.36ZM98.764 50.21C98.684 49.57 98.404 49 97.924 48.5C97.444 47.98 96.724 47.72 95.764 47.72C94.864 47.72 94.174 47.97 93.694 48.47C93.214 48.97 92.914 49.55 92.794 50.21H98.764ZM115.56 59H105.45V44.51H115.29C116.75 44.51 117.87 44.88 118.65 45.62C119.45 46.36 119.85 47.23 119.85 48.23C119.85 49.05 119.62 49.75 119.16 50.33C118.7 50.91 118.1 51.31 117.36 51.53C118.2 51.69 118.88 52.1 119.4 52.76C119.92 53.4 120.18 54.16 120.18 55.04C120.18 56.16 119.78 57.1 118.98 57.86C118.18 58.62 117.04 59 115.56 59ZM114.39 55.43C114.73 55.43 115 55.34 115.2 55.16C115.42 54.98 115.53 54.74 115.53 54.44C115.53 54.14 115.42 53.9 115.2 53.72C115 53.52 114.73 53.42 114.39 53.42H110.07V55.43H114.39ZM114.21 49.88C114.51 49.88 114.75 49.8 114.93 49.64C115.11 49.46 115.2 49.24 115.2 48.98C115.2 48.7 115.11 48.48 114.93 48.32C114.75 48.16 114.51 48.08 114.21 48.08H110.07V49.88H114.21Z" fill="#4A4343"/>
<path d="M192.5 195C181.728 195 173 203.728 173 214.5C173 225.272 181.728 234 192.5 234C203.272 234 212 225.272 212 214.5C212 203.728 203.272 195 192.5 195ZM185.103 222.834C184.85 223.266 184.4 223.5 183.931 223.5C183.697 223.5 183.463 223.444 183.247 223.312C182.6 222.938 182.384 222.112 182.759 221.466L184.091 219.253C184.231 219.019 184.475 218.878 184.747 218.878H184.944C185.909 218.878 186.584 219.459 186.781 220.022L185.103 222.834ZM196.372 218.484L187.653 218.494H181.859C181.091 218.494 180.472 217.856 180.509 217.088C180.538 216.356 181.175 215.803 181.906 215.803H186.106L191.084 207.328L189.472 204.581C189.106 203.953 189.266 203.128 189.884 202.734C190.541 202.312 191.403 202.528 191.787 203.184L192.65 204.656H192.659L193.522 203.184C193.906 202.528 194.778 202.312 195.425 202.734C196.044 203.128 196.203 203.953 195.838 204.581L194.225 207.328L192.659 210L189.256 215.803V215.812H194.272C194.9 215.812 195.688 216.15 196.006 216.694L196.034 216.75C196.316 217.228 196.475 217.556 196.475 218.034C196.466 218.297 196.372 218.484 196.372 218.484ZM203.141 218.494H200.778V218.503L202.503 221.438C202.878 222.075 202.7 222.919 202.053 223.312C201.837 223.444 201.594 223.509 201.35 223.509C200.881 223.509 200.431 223.266 200.178 222.844L197.628 218.503L196.044 215.803L194 212.306C193.4 211.284 193.372 210.009 193.944 208.997C194.347 208.284 194.656 208.097 194.656 208.097L199.203 215.794H203.113C203.844 215.794 204.472 216.356 204.509 217.078C204.538 217.856 203.919 218.494 203.141 218.494Z" fill="#D9A4FC"/>
<circle cx="240.288" cy="214.592" r="19.7659" fill="#F5E6FE"/>
<path d="M248.321 217.935L245.814 215.471L236.607 224.549L248.321 217.935Z" fill="#D9A4FC"/>
<path d="M248.321 211.224L236.607 204.612L245.814 213.689L248.321 211.224Z" fill="#D9A4FC"/>
<path d="M251.992 215.826C252.743 215.239 252.743 213.917 251.942 213.332L249.486 211.933L246.745 214.579L249.486 217.225L251.992 215.826Z" fill="#D9A4FC"/>
<path d="M234.204 225.078L244.909 214.577L234.204 204.08V204.078C233.662 204.358 233.299 204.866 233.299 205.527V223.63C233.3 224.29 233.662 224.798 234.204 225.078Z" fill="#BE63F9"/>
</svg>
